<svg width="257" height="257" viewBox="0 0 257 257" fill="none" xmlns="http://www.w3.org/2000/svg">
<g filter="url(#filter0_d_69_31)">
<path d="M150.126 115.489C152.843 113.849 157.525 112.801 157.525 112.801C157.525 112.801 152.974 112.314 150.126 112.801C140.915 114.374 133.471 122.689 126.583 128.26C126.583 128.26 109.735 146.088 99.677 151.113C89.6193 156.138 82.0891 158.377 71.4255 152.457C61.5447 145.824 58.772 137.194 61.1975 125.524C63.4403 114.733 69.8813 107.256 80.8427 104.973C88.5838 103.361 97.9705 104.939 104.386 109.44C106.065 110.618 108.422 112.801 108.422 112.801C108.422 112.801 106.977 109.807 105.731 108.096C101.556 102.364 95.0882 99.2336 88.2419 98.0135C84.6214 97.3683 82.5057 97.1306 78.8247 97.3414C74.813 97.5711 72.4855 98.0415 68.7349 99.3578C56.9677 103.488 48.8362 116.557 47.21 128.26C45.5474 149.739 53.4849 165.984 80.8427 167.911C104.014 169.542 117.321 148.495 131.253 133.231C136.772 127.112 142.947 119.823 150.126 115.489Z" fill="url(#paint0_linear_69_31)" shape-rendering="crispEdges"/>
</g>
<ellipse cx="78.5506" cy="123.597" rx="8.35523" ry="8.34884" fill="black"/>
<g filter="url(#filter1_d_69_31)">
<ellipse cx="174.957" cy="123.597" rx="8.35523" ry="8.34884" fill="white"/>
</g>
<g filter="url(#filter2_d_69_31)">
<path d="M105.874 130.511C103.157 132.151 98.4746 133.199 98.4746 133.199C98.4746 133.199 103.026 133.686 105.874 133.199C115.085 131.626 122.529 123.311 129.417 117.74C129.417 117.74 146.265 99.9124 156.323 94.8874C166.381 89.8624 173.911 87.6234 184.574 93.5431C194.455 100.176 197.228 108.806 194.803 120.476C192.56 131.267 186.119 138.744 175.157 141.027C167.416 142.639 158.029 141.061 151.614 136.56C149.935 135.382 147.578 133.199 147.578 133.199C147.578 133.199 149.023 136.193 150.269 137.904C154.444 143.636 160.912 146.766 167.758 147.986C171.379 148.632 173.494 148.869 177.175 148.659C181.187 148.429 183.515 147.958 187.265 146.642C199.032 142.512 207.164 129.443 208.79 117.74C210.453 96.261 202.515 80.0161 175.157 78.0894C151.986 76.4576 138.679 97.5047 124.747 112.769C119.228 118.888 113.053 126.177 105.874 130.511Z" fill="url(#paint1_linear_69_31)" shape-rendering="crispEdges"/>
</g>
<path d="M131.053 157.966H132.621L133.409 158.98L134.185 159.884L135.646 161.716H133.925L132.919 160.48L132.403 159.747L131.053 157.966ZM135.778 156.636C135.778 157.588 135.598 158.398 135.237 159.065C134.879 159.733 134.391 160.243 133.771 160.595C133.155 160.945 132.462 161.119 131.692 161.119C130.916 161.119 130.22 160.943 129.604 160.591C128.987 160.239 128.5 159.729 128.142 159.061C127.784 158.393 127.605 157.585 127.605 156.636C127.605 155.685 127.784 154.875 128.142 154.207C128.5 153.54 128.987 153.031 129.604 152.682C130.22 152.33 130.916 152.153 131.692 152.153C132.462 152.153 133.155 152.33 133.771 152.682C134.391 153.031 134.879 153.54 135.237 154.207C135.598 154.875 135.778 155.685 135.778 156.636ZM133.908 156.636C133.908 156.02 133.815 155.5 133.631 155.077C133.449 154.653 133.192 154.332 132.859 154.114C132.527 153.895 132.138 153.786 131.692 153.786C131.246 153.786 130.857 153.895 130.524 154.114C130.192 154.332 129.933 154.653 129.749 155.077C129.567 155.5 129.476 156.02 129.476 156.636C129.476 157.253 129.567 157.773 129.749 158.196C129.933 158.619 130.192 158.94 130.524 159.159C130.857 159.378 131.246 159.487 131.692 159.487C132.138 159.487 132.527 159.378 132.859 159.159C133.192 158.94 133.449 158.619 133.631 158.196C133.815 157.773 133.908 157.253 133.908 156.636ZM141.309 158.213V154.455H143.124V161H141.381V159.811H141.313C141.165 160.195 140.919 160.503 140.576 160.736C140.235 160.969 139.819 161.085 139.327 161.085C138.89 161.085 138.505 160.986 138.172 160.787C137.84 160.588 137.58 160.305 137.392 159.939C137.208 159.572 137.114 159.134 137.111 158.622V154.455H138.926V158.298C138.929 158.685 139.033 158.99 139.238 159.214C139.442 159.439 139.716 159.551 140.06 159.551C140.279 159.551 140.483 159.501 140.674 159.402C140.864 159.3 141.017 159.149 141.134 158.95C141.253 158.751 141.311 158.506 141.309 158.213ZM147.559 161.128C146.886 161.128 146.306 160.991 145.82 160.719C145.337 160.443 144.965 160.054 144.704 159.551C144.442 159.045 144.312 158.447 144.312 157.757C144.312 157.084 144.442 156.493 144.704 155.984C144.965 155.476 145.333 155.08 145.808 154.795C146.285 154.511 146.844 154.369 147.487 154.369C147.918 154.369 148.32 154.439 148.692 154.578C149.067 154.714 149.394 154.92 149.673 155.196C149.954 155.472 150.173 155.818 150.329 156.236C150.485 156.651 150.563 157.136 150.563 157.693V158.192H145.036V157.067H148.854C148.854 156.805 148.798 156.574 148.684 156.372C148.57 156.17 148.413 156.013 148.211 155.899C148.012 155.783 147.781 155.724 147.516 155.724C147.241 155.724 146.996 155.788 146.783 155.916C146.573 156.041 146.408 156.21 146.289 156.423C146.17 156.634 146.109 156.868 146.106 157.126V158.196C146.106 158.52 146.165 158.8 146.285 159.036C146.407 159.271 146.579 159.453 146.8 159.581C147.022 159.709 147.285 159.773 147.589 159.773C147.79 159.773 147.975 159.744 148.143 159.688C148.31 159.631 148.454 159.545 148.573 159.432C148.692 159.318 148.783 159.179 148.846 159.014L150.525 159.125C150.44 159.528 150.265 159.881 150.001 160.182C149.739 160.48 149.401 160.713 148.987 160.881C148.575 161.045 148.099 161.128 147.559 161.128ZM157.194 156.321L155.532 156.423C155.504 156.281 155.442 156.153 155.349 156.04C155.255 155.923 155.131 155.831 154.978 155.763C154.827 155.692 154.647 155.656 154.437 155.656C154.156 155.656 153.918 155.716 153.725 155.835C153.532 155.952 153.435 156.108 153.435 156.304C153.435 156.46 153.498 156.592 153.623 156.7C153.748 156.808 153.962 156.895 154.266 156.96L155.451 157.199C156.087 157.33 156.562 157.54 156.874 157.83C157.187 158.119 157.343 158.5 157.343 158.972C157.343 159.401 157.217 159.777 156.964 160.101C156.714 160.425 156.37 160.678 155.933 160.859C155.498 161.038 154.996 161.128 154.428 161.128C153.562 161.128 152.871 160.947 152.357 160.587C151.846 160.223 151.546 159.729 151.458 159.104L153.244 159.01C153.298 159.274 153.428 159.476 153.636 159.615C153.843 159.751 154.109 159.82 154.433 159.82C154.751 159.82 155.006 159.759 155.2 159.636C155.396 159.511 155.495 159.351 155.498 159.155C155.495 158.99 155.425 158.855 155.289 158.75C155.153 158.642 154.942 158.56 154.658 158.503L153.525 158.277C152.886 158.149 152.41 157.928 152.097 157.612C151.788 157.297 151.633 156.895 151.633 156.406C151.633 155.986 151.746 155.624 151.974 155.32C152.204 155.016 152.526 154.781 152.941 154.616C153.359 154.452 153.847 154.369 154.407 154.369C155.234 154.369 155.884 154.544 156.359 154.893C156.836 155.243 157.114 155.719 157.194 156.321ZM161.968 154.455V155.818H158.026V154.455H161.968ZM158.921 152.886H160.736V158.989C160.736 159.156 160.762 159.287 160.813 159.381C160.864 159.472 160.935 159.536 161.026 159.572C161.12 159.609 161.228 159.628 161.35 159.628C161.435 159.628 161.52 159.621 161.605 159.607C161.691 159.589 161.756 159.577 161.801 159.568L162.087 160.919C161.996 160.947 161.868 160.98 161.703 161.017C161.539 161.057 161.338 161.081 161.103 161.089C160.665 161.107 160.282 161.048 159.952 160.915C159.625 160.781 159.371 160.574 159.189 160.293C159.007 160.011 158.918 159.656 158.921 159.227V152.886ZM163.15 161V154.455H164.966V161H163.15ZM164.062 153.611C163.792 153.611 163.561 153.521 163.368 153.342C163.177 153.161 163.082 152.943 163.082 152.69C163.082 152.44 163.177 152.226 163.368 152.047C163.561 151.865 163.792 151.774 164.062 151.774C164.332 151.774 164.562 151.865 164.752 152.047C164.946 152.226 165.042 152.44 165.042 152.69C165.042 152.943 164.946 153.161 164.752 153.342C164.562 153.521 164.332 153.611 164.062 153.611ZM169.377 161.128C168.715 161.128 168.143 160.987 167.66 160.706C167.18 160.422 166.809 160.027 166.548 159.521C166.286 159.013 166.156 158.423 166.156 157.753C166.156 157.077 166.286 156.486 166.548 155.98C166.809 155.472 167.18 155.077 167.66 154.795C168.143 154.511 168.715 154.369 169.377 154.369C170.039 154.369 170.61 154.511 171.09 154.795C171.573 155.077 171.945 155.472 172.207 155.98C172.468 156.486 172.599 157.077 172.599 157.753C172.599 158.423 172.468 159.013 172.207 159.521C171.945 160.027 171.573 160.422 171.09 160.706C170.61 160.987 170.039 161.128 169.377 161.128ZM169.386 159.722C169.687 159.722 169.938 159.636 170.14 159.466C170.342 159.293 170.494 159.057 170.596 158.759C170.701 158.46 170.754 158.121 170.754 157.74C170.754 157.359 170.701 157.02 170.596 156.722C170.494 156.423 170.342 156.187 170.14 156.014C169.938 155.841 169.687 155.754 169.386 155.754C169.082 155.754 168.826 155.841 168.619 156.014C168.414 156.187 168.259 156.423 168.154 156.722C168.052 157.02 168.001 157.359 168.001 157.74C168.001 158.121 168.052 158.46 168.154 158.759C168.259 159.057 168.414 159.293 168.619 159.466C168.826 159.636 169.082 159.722 169.386 159.722ZM175.594 157.216V161H173.779V154.455H175.509V155.609H175.586C175.731 155.229 175.974 154.928 176.315 154.706C176.656 154.482 177.069 154.369 177.555 154.369C178.009 154.369 178.406 154.469 178.744 154.668C179.082 154.866 179.344 155.151 179.532 155.52C179.719 155.886 179.813 156.324 179.813 156.832V161H177.998V157.156C178.001 156.756 177.898 156.443 177.691 156.219C177.484 155.991 177.198 155.878 176.835 155.878C176.59 155.878 176.374 155.93 176.187 156.036C176.002 156.141 175.857 156.294 175.752 156.496C175.65 156.695 175.597 156.935 175.594 157.216ZM127.759 176V167.273H133.639V168.794H129.604V170.874H133.337V172.395H129.604V174.479H133.656V176H127.759ZM141.174 169.455L138.886 176H136.841L134.552 169.455H136.47L137.829 174.138H137.897L139.252 169.455H141.174ZM144.875 176.128C144.202 176.128 143.623 175.991 143.137 175.719C142.654 175.443 142.282 175.054 142.02 174.551C141.759 174.045 141.628 173.447 141.628 172.757C141.628 172.084 141.759 171.493 142.02 170.984C142.282 170.476 142.65 170.08 143.124 169.795C143.601 169.511 144.161 169.369 144.803 169.369C145.235 169.369 145.637 169.439 146.009 169.578C146.384 169.714 146.711 169.92 146.989 170.196C147.27 170.472 147.489 170.818 147.645 171.236C147.801 171.651 147.88 172.136 147.88 172.693V173.192H142.353V172.067H146.171C146.171 171.805 146.114 171.574 146 171.372C145.887 171.17 145.729 171.013 145.527 170.899C145.328 170.783 145.097 170.724 144.833 170.724C144.557 170.724 144.313 170.788 144.1 170.916C143.89 171.041 143.725 171.21 143.605 171.423C143.486 171.634 143.425 171.868 143.422 172.126V173.196C143.422 173.52 143.482 173.8 143.601 174.036C143.723 174.271 143.895 174.453 144.117 174.581C144.338 174.709 144.601 174.773 144.905 174.773C145.107 174.773 145.292 174.744 145.459 174.688C145.627 174.631 145.77 174.545 145.89 174.432C146.009 174.318 146.1 174.179 146.162 174.014L147.841 174.125C147.756 174.528 147.581 174.881 147.317 175.182C147.056 175.48 146.718 175.713 146.303 175.881C145.891 176.045 145.415 176.128 144.875 176.128ZM149.064 176V169.455H150.824V170.597H150.892C151.012 170.19 151.212 169.884 151.493 169.676C151.775 169.466 152.098 169.361 152.465 169.361C152.556 169.361 152.654 169.366 152.759 169.378C152.864 169.389 152.956 169.405 153.036 169.425V171.036C152.951 171.01 152.833 170.987 152.682 170.967C152.532 170.947 152.394 170.938 152.269 170.938C152.002 170.938 151.763 170.996 151.553 171.112C151.346 171.226 151.181 171.385 151.059 171.589C150.939 171.794 150.88 172.03 150.88 172.297V176H149.064ZM155.294 178.455C155.064 178.455 154.848 178.436 154.647 178.399C154.448 178.365 154.283 178.321 154.152 178.267L154.561 176.912C154.775 176.977 154.966 177.013 155.137 177.018C155.31 177.024 155.459 176.984 155.584 176.899C155.712 176.814 155.816 176.669 155.895 176.464L156.002 176.188L153.654 169.455H155.563L156.918 174.261H156.986L158.354 169.455H160.276L157.732 176.707C157.61 177.06 157.444 177.366 157.233 177.628C157.026 177.892 156.763 178.095 156.445 178.237C156.127 178.382 155.743 178.455 155.294 178.455ZM164.686 169.455V170.818H160.745V169.455H164.686ZM161.64 167.886H163.455V173.989C163.455 174.156 163.48 174.287 163.532 174.381C163.583 174.472 163.654 174.536 163.745 174.572C163.838 174.609 163.946 174.628 164.069 174.628C164.154 174.628 164.239 174.621 164.324 174.607C164.409 174.589 164.475 174.577 164.52 174.568L164.806 175.919C164.715 175.947 164.587 175.98 164.422 176.017C164.257 176.057 164.057 176.081 163.821 176.089C163.384 176.107 163 176.048 162.671 175.915C162.344 175.781 162.09 175.574 161.908 175.293C161.726 175.011 161.637 174.656 161.64 174.227V167.886ZM167.825 172.216V176H166.01V167.273H167.774V170.609H167.85C167.998 170.223 168.237 169.92 168.566 169.702C168.896 169.48 169.309 169.369 169.806 169.369C170.261 169.369 170.657 169.469 170.995 169.668C171.336 169.864 171.6 170.146 171.788 170.516C171.978 170.882 172.072 171.321 172.069 171.832V176H170.254V172.156C170.257 171.753 170.154 171.439 169.947 171.214C169.743 170.99 169.456 170.878 169.086 170.878C168.839 170.878 168.62 170.93 168.43 171.036C168.243 171.141 168.095 171.294 167.987 171.496C167.882 171.695 167.828 171.935 167.825 172.216ZM173.498 176V169.455H175.313V176H173.498ZM174.41 168.611C174.14 168.611 173.908 168.521 173.715 168.342C173.525 168.161 173.43 167.943 173.43 167.69C173.43 167.44 173.525 167.226 173.715 167.047C173.908 166.865 174.14 166.774 174.41 166.774C174.68 166.774 174.91 166.865 175.1 167.047C175.293 167.226 175.39 167.44 175.39 167.69C175.39 167.943 175.293 168.161 175.1 168.342C174.91 168.521 174.68 168.611 174.41 168.611ZM178.583 172.216V176H176.767V169.455H178.498V170.609H178.574C178.719 170.229 178.962 169.928 179.303 169.706C179.644 169.482 180.057 169.369 180.543 169.369C180.998 169.369 181.394 169.469 181.732 169.668C182.07 169.866 182.333 170.151 182.52 170.52C182.708 170.886 182.801 171.324 182.801 171.832V176H180.986V172.156C180.989 171.756 180.887 171.443 180.679 171.219C180.472 170.991 180.186 170.878 179.823 170.878C179.578 170.878 179.363 170.93 179.175 171.036C178.99 171.141 178.846 171.294 178.74 171.496C178.638 171.695 178.586 171.935 178.583 172.216ZM187.181 178.591C186.593 178.591 186.089 178.51 185.668 178.348C185.251 178.189 184.918 177.972 184.671 177.696C184.424 177.42 184.263 177.111 184.19 176.767L185.869 176.541C185.92 176.672 186.001 176.794 186.112 176.908C186.222 177.021 186.369 177.112 186.55 177.18C186.735 177.251 186.96 177.287 187.224 177.287C187.619 177.287 187.944 177.19 188.2 176.997C188.458 176.807 188.587 176.487 188.587 176.038V174.841H188.511C188.431 175.023 188.312 175.195 188.153 175.357C187.994 175.518 187.789 175.651 187.539 175.753C187.289 175.855 186.991 175.906 186.644 175.906C186.153 175.906 185.705 175.793 185.302 175.565C184.901 175.335 184.582 174.984 184.343 174.513C184.107 174.038 183.989 173.439 183.989 172.714C183.989 171.973 184.11 171.354 184.352 170.857C184.593 170.359 184.914 169.987 185.315 169.74C185.718 169.493 186.16 169.369 186.64 169.369C187.006 169.369 187.313 169.432 187.56 169.557C187.808 169.679 188.006 169.832 188.157 170.017C188.31 170.199 188.428 170.378 188.511 170.554H188.579V169.455H190.381V176.064C190.381 176.621 190.245 177.087 189.972 177.462C189.7 177.837 189.322 178.118 188.839 178.305C188.359 178.496 187.806 178.591 187.181 178.591ZM187.219 174.543C187.512 174.543 187.759 174.47 187.961 174.325C188.165 174.178 188.322 173.967 188.43 173.695C188.54 173.419 188.596 173.089 188.596 172.706C188.596 172.322 188.542 171.99 188.434 171.709C188.326 171.425 188.17 171.205 187.965 171.048C187.761 170.892 187.512 170.814 187.219 170.814C186.921 170.814 186.67 170.895 186.465 171.057C186.261 171.216 186.106 171.437 186.001 171.722C185.896 172.006 185.843 172.334 185.843 172.706C185.843 173.084 185.896 173.411 186.001 173.686C186.109 173.959 186.263 174.17 186.465 174.321C186.67 174.469 186.921 174.543 187.219 174.543Z" fill="black"/>
<defs>
<filter id="filter0_d_69_31" x="43" y="97.2666" width="118.525" height="78.7334" filterUnits="userSpaceOnUse" color-interpolation-filters="sRGB">
<feFlood flood-opacity="0" result="BackgroundImageFix"/>
<feColorMatrix in="SourceAlpha" type="matrix" values="0 0 0 0 0 0 0 0 0 0 0 0 0 0 0 0 0 0 127 0" result="hardAlpha"/>
<feOffset dy="4"/>
<feGaussianBlur stdDeviation="2"/>
<feComposite in2="hardAlpha" operator="out"/>
<feColorMatrix type="matrix" values="0 0 0 0 0 0 0 0 0 0 0 0 0 0 0 0 0 0 0.25 0"/>
<feBlend mode="normal" in2="BackgroundImageFix" result="effect1_dropShadow_69_31"/>
<feBlend mode="normal" in="SourceGraphic" in2="effect1_dropShadow_69_31" result="shape"/>
</filter>
<filter id="filter1_d_69_31" x="162.602" y="115.249" width="24.7105" height="24.6977" filterUnits="userSpaceOnUse" color-interpolation-filters="sRGB">
<feFlood flood-opacity="0" result="BackgroundImageFix"/>
<feColorMatrix in="SourceAlpha" type="matrix" values="0 0 0 0 0 0 0 0 0 0 0 0 0 0 0 0 0 0 127 0" result="hardAlpha"/>
<feOffset dy="4"/>
<feGaussianBlur stdDeviation="2"/>
<feComposite in2="hardAlpha" operator="out"/>
<feColorMatrix type="matrix" values="0 0 0 0 0 0 0 0 0 0 0 0 0 0 0 0 0 0 0.25 0"/>
<feBlend mode="normal" in2="BackgroundImageFix" result="effect1_dropShadow_69_31"/>
<feBlend mode="normal" in="SourceGraphic" in2="effect1_dropShadow_69_31" result="shape"/>
</filter>
<filter id="filter2_d_69_31" x="94.4746" y="78" width="118.525" height="78.7335" filterUnits="userSpaceOnUse" color-interpolation-filters="sRGB">
<feFlood flood-opacity="0" result="BackgroundImageFix"/>
<feColorMatrix in="SourceAlpha" type="matrix" values="0 0 0 0 0 0 0 0 0 0 0 0 0 0 0 0 0 0 127 0" result="hardAlpha"/>
<feOffset dy="4"/>
<feGaussianBlur stdDeviation="2"/>
<feComposite in2="hardAlpha" operator="out"/>
<feColorMatrix type="matrix" values="0 0 0 0 0 0 0 0 0 0 0 0 0 0 0 0 0 0 0.25 0"/>
<feBlend mode="normal" in2="BackgroundImageFix" result="effect1_dropShadow_69_31"/>
<feBlend mode="normal" in="SourceGraphic" in2="effect1_dropShadow_69_31" result="shape"/>
</filter>
<linearGradient id="paint0_linear_69_31" x1="102.263" y1="168" x2="102.263" y2="97.2666" gradientUnits="userSpaceOnUse">
<stop stop-color="#B3B3B3"/>
<stop offset="1" stop-color="white" stop-opacity="0"/>
</linearGradient>
<linearGradient id="paint1_linear_69_31" x1="153.737" y1="78" x2="153.737" y2="148.733" gradientUnits="userSpaceOnUse">
<stop stop-opacity="0"/>
<stop offset="1"/>
</linearGradient>
</defs>
</svg>
